<svg version="1.1" id="Layer_1" xmlns="http://www.w3.org/2000/svg" xmlns:xlink="http://www.w3.org/1999/xlink" x="0px" y="0px"
	 width="799px" height="136px" viewBox="0 0 799 136" enable-background="new 0 0 799 136" xml:space="preserve">
<path fill="#74b8e2" opacity="1.000000" stroke="none" 
	d="
M87.531342,1.000000 
	C87.936577,1.375751 87.715874,2.020813 87.832214,2.088755 
	C94.912811,6.223808 96.053268,12.984605 96.009018,20.314926 
	C95.966965,27.283268 95.999977,34.252060 95.999977,42.000004 
	C104.191216,42.000004 112.130699,42.448402 119.999786,41.895332 
	C131.922989,41.057327 138.337067,48.957996 138.048767,60.002201 
	C137.810150,69.143517 138.541168,78.335129 137.883514,87.435158 
	C136.644394,104.581299 139.316635,120.831596 146.984497,136.620041 
	C145.933334,137.000000 144.866653,137.000000 143.675446,136.703247 
	C137.124161,132.515030 130.758591,128.515457 124.223106,124.816086 
	C122.779259,123.998802 120.734566,124.037476 118.965485,124.032112 
	C101.484520,123.979073 84.003311,124.016090 66.522217,123.992554 
	C58.345703,123.981544 53.024757,118.582741 53.004833,110.324905 
	C52.984070,101.719147 53.000202,93.113304 53.000202,84.034676 
	C43.156036,84.034676 33.876694,84.014793 24.597824,84.071541 
	C23.836573,84.076202 23.009474,84.489098 22.329599,84.903603 
	C15.206054,89.246628 8.106321,93.628716 1.000000,98.000000 
	C1.000000,95.958336 1.000000,93.916664 1.374680,91.415375 
	C5.493675,83.241905 9.603461,75.920891 9.188842,66.619308 
	C8.501628,51.202366 9.022306,35.732498 8.990571,20.285019 
	C8.975540,12.968518 10.098266,6.214099 17.168926,2.087183 
	C17.284697,2.019612 17.063795,1.375218 17.000000,1.000000 
	C40.354229,1.000000 63.708454,1.000000 87.531342,1.000000 
M107.000000,68.614983 
	C106.998810,76.778862 107.116951,84.945076 106.957008,93.105843 
	C106.838402,99.158005 101.177658,104.505119 95.230148,103.911949 
	C87.753059,103.166214 83.603722,98.396912 83.880989,92.701157 
	C84.326019,83.559326 83.867310,74.377197 84.056618,65.217606 
	C84.148033,60.794991 82.580345,58.471245 77.995911,59.029827 
	C74.504402,59.455246 72.911079,57.792824 71.975212,54.650967 
	C70.761841,50.577457 69.248550,46.591682 67.816589,42.585217 
	C64.841797,34.262085 61.777367,25.970448 58.872654,17.623106 
	C57.805153,14.555383 55.788509,13.661683 52.757305,13.967473 
	C50.225319,14.222901 47.920589,13.472502 46.681492,17.286926 
	C43.194504,28.021223 39.007275,38.529457 35.034443,49.103642 
	C33.886303,52.159569 33.247742,55.880497 31.089579,57.965351 
	C28.296747,60.663326 28.942753,62.946430 29.527779,66.008537 
	C33.214615,65.277679 38.595726,68.282394 39.388103,62.784359 
	C40.912624,52.206257 47.235477,50.588566 56.017181,51.989998 
	C56.504616,52.067791 57.024864,52.064041 57.513515,51.990211 
	C60.922863,51.475101 62.321144,52.988365 63.280090,56.307922 
	C64.874542,61.827354 66.443130,68.014999 74.396278,66.040779 
	C74.703491,66.931763 74.899704,67.237480 74.901436,67.544289 
	C74.946609,75.540154 74.978661,83.536125 74.998184,91.532112 
	C75.019554,100.285347 79.613495,107.554428 86.439354,110.007523 
	C96.890320,113.763428 107.958603,111.008240 111.848160,104.316803 
	C114.204842,100.262459 115.448578,95.175606 115.826828,90.443474 
	C116.459480,82.528595 115.999649,74.526382 115.999649,66.324623 
	C117.815689,66.087723 119.217377,65.904877 120.596420,65.724983 
	C120.596420,63.342316 120.596420,61.312740 120.596420,59.000839 
	C117.550163,59.000839 114.881149,59.203693 112.255280,58.953609 
	C108.250031,58.572151 106.865189,60.502941 106.996582,64.154892 
	C107.038483,65.319611 107.001099,66.487175 107.000000,68.614983 
z"/>
<path fill="#74b8e2" opacity="1.000000" stroke="none" 
	d="
M800.000000,94.555832 
	C794.827148,94.911201 789.158264,96.263359 786.239258,89.905586 
	C781.064026,93.614891 776.249573,97.070076 769.496033,95.098145 
	C762.788940,93.139778 759.170471,89.046234 759.029480,81.723907 
	C758.901733,75.090149 759.002380,68.452003 759.002380,61.522343 
	C757.403198,61.202419 756.018860,60.925488 754.320862,60.585796 
	C754.320862,58.705776 754.320862,56.776432 754.320862,54.046715 
	C757.598511,54.046715 761.168335,53.433090 764.329834,54.303299 
	C765.931702,54.744221 767.687927,57.800228 767.829285,59.784081 
	C768.277466,66.071037 768.142883,72.414467 767.941895,78.726768 
	C767.833801,82.120895 768.190979,85.882713 771.576904,86.484703 
	C774.774658,87.053246 778.825867,86.179390 781.679077,84.523033 
	C785.722107,82.175926 787.016235,77.652855 787.003479,72.947350 
	C786.986938,66.831589 786.999390,60.715763 786.999390,54.304543 
	C790.045105,54.304543 792.634460,54.304543 796.000000,54.304543 
	C796.000000,62.823368 795.999390,71.399925 796.000671,79.976486 
	C796.000916,81.473007 795.610535,83.133095 796.136475,84.415886 
	C796.582092,85.502731 798.091858,86.153290 799.565308,86.998459 
	C800.000000,89.370560 800.000000,91.741112 800.000000,94.555832 
z"/>
<path fill="#74b8e2" opacity="1.000000" stroke="none" 
	d="
M200.050385,59.859856 
	C202.408340,66.382469 204.511429,72.600021 207.103516,78.606537 
	C208.433716,81.688911 211.011154,84.236404 212.316254,87.325066 
	C213.206879,89.432823 212.871674,92.058540 213.078964,94.389900 
	C205.084229,95.658768 203.256744,94.533386 200.793564,87.536240 
	C199.818741,84.766991 198.614899,82.078346 197.372879,79.000000 
	C195.032166,79.000000 192.547791,78.945847 190.066666,79.012383 
	C186.100174,79.118767 181.328354,78.017227 178.413101,79.844772 
	C175.846359,81.453850 175.517273,86.452560 173.910522,89.816071 
	C171.638824,94.571571 167.562775,95.652985 162.341599,94.694077 
	C162.512009,91.659866 160.206314,88.613335 164.871643,86.062019 
	C167.113754,84.835876 167.702148,80.401314 168.821777,77.340088 
	C172.925766,66.119301 176.947205,54.868252 180.979614,43.621395 
	C182.093094,40.515774 182.821930,37.763092 187.458374,37.788704 
	C191.886063,37.813160 192.951889,39.923309 194.052063,43.344246 
	C195.804245,48.792538 197.993591,54.100239 200.050385,59.859856 
M183.542145,61.941048 
	C182.469116,64.804337 181.396088,67.667625 180.313293,70.556946 
	C185.467026,70.556946 190.108002,70.556946 194.860886,70.556946 
	C192.593445,64.088112 190.480896,58.061176 188.299347,51.837376 
	C187.454117,52.402149 186.829666,52.583679 186.700226,52.943352 
	C185.712708,55.687267 184.821762,58.465942 183.542145,61.941048 
z"/>
<path fill="#74b8e2" opacity="1.000000" stroke="none" 
	d="
M523.299683,94.729645 
	C520.788879,94.897926 518.664612,94.897926 516.109985,94.897926 
	C516.109985,78.601387 516.109985,62.671402 516.109985,46.465324 
	C514.337769,46.153595 512.944214,45.908474 511.285980,45.616798 
	C511.285980,43.295368 511.285980,41.026085 511.285980,38.018921 
	C514.181580,38.018921 517.264709,37.466450 519.981018,38.225845 
	C521.614136,38.682419 523.611450,41.073868 523.812683,42.787464 
	C524.346558,47.334393 523.993835,51.985413 523.993835,55.437469 
	C529.875732,54.725338 535.627136,52.698074 540.802917,53.686123 
	C550.831482,55.600594 555.077271,64.925804 554.772888,74.273842 
	C554.435364,84.636314 550.953735,92.869690 537.978394,95.226410 
	C533.876465,95.971451 529.202454,93.567108 524.250549,92.486275 
	C524.318420,92.236687 524.002319,93.399017 523.299683,94.729645 
M524.005737,73.589317 
	C524.748901,76.574120 525.084839,79.740433 526.317993,82.506813 
	C529.093689,88.733635 536.413269,89.895668 541.361267,85.116943 
	C546.282349,80.364258 546.691101,74.607353 544.969360,68.377777 
	C543.643433,63.580204 540.036987,60.939800 534.702393,61.000912 
	C529.775085,61.057362 526.228027,63.794956 525.037903,68.479385 
	C524.677917,69.896317 524.358765,71.323593 524.005737,73.589317 
z"/>
<path fill="#74b8e2" opacity="1.000000" stroke="none" 
	d="
M627.137329,52.994431 
	C623.444153,51.656219 622.970581,47.535645 625.646545,43.908920 
	C629.605957,38.543003 638.588013,35.916588 645.224976,37.577702 
	C652.887329,39.495495 657.821960,44.079578 658.838013,51.745537 
	C659.834595,59.265526 656.051941,65.014191 649.763062,69.044899 
	C645.491516,71.782639 641.011169,74.210083 636.855774,77.108322 
	C633.665344,79.333496 630.413513,81.840172 631.318481,86.807022 
	C638.407471,86.807022 645.351685,86.807022 652.674561,86.807022 
	C652.882080,84.952774 653.075439,83.224861 653.319214,81.046394 
	C656.519775,81.985001 661.183533,78.237732 661.943909,84.519638 
	C662.732605,91.035416 659.936646,94.831001 654.279236,94.948280 
	C645.795166,95.124153 637.301880,95.129951 628.818054,94.950333 
	C622.603088,94.818748 620.202698,90.075806 622.264587,82.425087 
	C623.931946,76.238190 628.712585,72.856529 633.751221,69.617958 
	C638.289185,66.701187 642.911560,63.809753 646.991211,60.316696 
	C650.783997,57.069271 650.830566,51.724628 647.887146,48.418259 
	C645.379944,45.601933 637.317932,44.733578 634.545715,47.371033 
	C633.298584,48.557503 632.988831,50.729267 632.021973,52.997871 
	C630.850769,52.997871 629.217407,52.997871 627.137329,52.994431 
z"/>
<path fill="#74b8e2" opacity="1.000000" stroke="none" 
	d="
M487.074585,60.002998 
	C484.759247,61.234470 482.982117,62.753376 480.929230,63.616615 
	C478.719391,64.545868 476.251099,64.860458 473.916901,65.437950 
	C472.101807,57.967056 473.642487,55.831329 481.640198,53.748909 
	C491.547028,51.169399 500.130707,54.152916 503.081085,61.459724 
	C503.847260,63.357231 503.903320,65.611153 503.961761,67.710373 
	C504.086731,72.200218 504.039398,76.696411 503.987274,81.189125 
	C503.948700,84.514664 503.564209,88.001808 508.773224,87.075523 
	C508.773224,89.887695 508.773224,92.153389 508.773224,95.840302 
	C503.878265,94.664879 499.519165,93.618118 495.160034,92.571365 
	C495.250000,92.086540 495.339935,91.601723 495.429871,91.116905 
	C492.832611,92.403465 490.301025,93.850426 487.625610,94.946068 
	C480.052765,98.047264 472.342590,91.797356 470.320801,86.629852 
	C468.008453,80.719627 472.111237,73.194626 479.051147,71.176346 
	C484.347565,69.636032 489.939087,69.110573 495.421448,68.129700 
	C494.413147,61.510445 493.581451,60.611584 487.074585,60.002998 
M490.276794,75.999352 
	C487.874725,76.324524 485.401123,76.392570 483.087524,77.035881 
	C479.720215,77.972176 478.425659,80.598297 479.127533,83.892532 
	C479.820282,87.143684 482.286987,88.062675 485.425323,88.030022 
	C491.837708,87.963310 495.605682,83.260567 495.364349,75.344864 
	C493.953674,75.562469 492.544708,75.779816 490.276794,75.999352 
z"/>
<path fill="#74b8e2" opacity="1.000000" stroke="none" 
	d="
M373.743774,83.748627 
	C375.343994,79.697739 377.387909,76.000732 377.830383,72.121071 
	C378.484100,66.389236 377.999268,60.527550 377.999268,54.364006 
	C381.056335,54.364006 383.756134,54.364006 387.000244,54.364006 
	C387.000244,63.641251 386.993134,72.758591 387.003296,81.875916 
	C387.008270,86.348099 387.022797,86.348083 390.851166,87.879105 
	C390.851166,89.985741 390.851166,92.124763 390.851166,94.227234 
	C383.626709,96.008072 380.962830,95.204208 377.483704,90.332336 
	C374.133667,91.901451 370.944122,94.029579 367.440125,94.919327 
	C356.336914,97.738686 349.369385,89.918198 349.945831,81.180176 
	C350.252197,76.536194 349.985138,71.855301 350.004883,67.191185 
	C350.019226,63.797394 350.799469,59.915573 345.272064,60.873764 
	C345.272064,58.343460 345.272064,56.417698 345.272064,54.714939 
	C345.667816,54.390636 345.788361,54.205132 345.926453,54.191013 
	C357.867554,52.970200 358.999786,54.001328 359.000000,66.077637 
	C359.000061,70.242104 358.995483,74.406570 359.000977,78.571030 
	C359.011932,86.905815 364.374756,89.942497 371.635071,85.694206 
	C372.334167,85.285141 372.863251,84.585541 373.743774,83.748627 
z"/>
<path fill="#74b8e2" opacity="1.000000" stroke="none" 
	d="
M398.000000,84.957748 
	C397.994080,77.476898 397.990662,70.488594 397.977051,63.500317 
	C397.976105,63.003433 397.900543,62.506702 397.828308,61.628532 
	C396.430420,61.277821 394.924408,60.899986 393.231262,60.475204 
	C393.231262,58.498402 393.231262,56.568802 393.231262,53.926311 
	C398.154938,55.175957 403.997253,50.857918 406.798553,56.895138 
	C412.428345,55.531029 417.596558,53.545864 422.876282,53.182793 
	C429.655914,52.716587 434.838318,58.437447 434.976776,65.334137 
	C435.083618,70.656464 434.987488,75.982666 435.003754,81.307076 
	C435.018829,86.235901 435.031799,86.235863 439.990997,87.815758 
	C439.990997,89.195236 440.016998,90.674919 439.980591,92.153069 
	C439.961029,92.945610 439.834106,93.735489 439.730011,94.785164 
	C438.191010,94.865036 436.898926,94.981850 435.606079,94.991043 
	C427.700714,95.047226 427.003296,94.365753 427.000031,86.688164 
	C426.997772,81.363716 427.255768,76.022163 426.906952,70.720528 
	C426.653809,66.872955 426.323975,62.528610 421.638000,61.106110 
	C417.329376,59.798145 410.831573,63.057434 408.926544,67.555290 
	C407.869934,70.049934 407.198120,72.866951 407.084381,75.569473 
	C406.820282,81.843071 407.000275,88.135361 407.000275,94.704506 
	C403.936279,94.704506 401.346558,94.704506 398.000000,94.704506 
	C398.000000,91.634438 398.000000,88.542366 398.000000,84.957748 
z"/>
<path fill="#74b8e2" opacity="1.000000" stroke="none" 
	d="
M609.093018,55.641346 
	C615.965149,62.406631 617.472412,66.363045 616.692200,75.798386 
	C607.361389,75.798386 597.962280,75.798386 588.386169,75.798386 
	C587.558777,81.237648 590.705078,83.825882 594.196228,86.011307 
	C599.756836,89.492218 606.578247,87.774590 612.302246,83.032928 
	C613.601440,85.070213 614.879944,87.075035 616.127014,89.030533 
	C606.859680,97.120125 594.753845,97.642830 586.349304,90.901054 
	C577.977295,84.185303 576.362000,70.726158 582.132141,61.764675 
	C586.820374,54.483356 597.711121,49.665794 609.093018,55.641346 
M604.818298,68.996948 
	C610.081055,68.174416 606.812683,65.098061 605.840942,63.567055 
	C603.801270,60.353382 600.394592,59.258728 596.682373,60.221077 
	C592.312927,61.353825 589.216492,63.935886 588.140015,68.999352 
	C593.645691,68.999352 598.796997,68.999352 604.818298,68.996948 
z"/>
<path fill="#74b8e2" opacity="1.000000" stroke="none" 
	d="
M336.985046,87.964508 
	C332.099213,90.617882 327.528381,93.665146 322.499634,95.052078 
	C313.489746,97.537033 303.538422,90.454781 300.492706,83.893372 
	C296.114899,74.462204 297.881287,65.115921 304.822784,58.676792 
	C311.775116,52.227623 322.652374,51.042099 331.361908,55.784256 
	C342.885773,62.058762 345.472107,76.419632 336.985046,87.964508 
M330.941040,82.185593 
	C331.623657,78.873749 332.902618,75.552643 332.851379,72.252197 
	C332.771332,67.095436 329.741333,63.100815 324.894409,61.621151 
	C320.551361,60.295300 315.829742,59.909370 311.897919,63.564388 
	C305.861511,69.175835 305.145721,79.154572 310.978699,84.278282 
	C315.923920,88.622177 324.236420,90.161125 330.941040,82.185593 
z"/>
<path fill="#74b8e2" opacity="1.000000" stroke="none" 
	d="
M715.321777,90.810379 
	C706.404236,83.302841 705.138550,71.108757 711.340088,61.872742 
	C719.082458,50.341969 739.356384,49.382942 747.864624,62.749973 
	C756.253845,75.929787 748.493958,92.313286 733.153625,95.127068 
	C726.448059,96.357018 721.051758,94.095886 715.321777,90.810379 
M741.987427,76.988869 
	C742.033875,64.986671 738.150024,60.711334 727.463867,61.001305 
	C721.416382,61.165401 716.932312,66.091034 716.031555,73.559433 
	C715.438171,78.478615 720.135620,85.722305 724.738342,86.985748 
	C733.270996,89.327950 737.684509,86.979645 741.987427,76.988869 
z"/>
<path fill="#74b8e2" opacity="1.000000" stroke="none" 
	d="
M664.015991,43.661194 
	C664.006165,41.743912 664.006165,40.257702 664.006165,38.840401 
	C671.258850,36.930843 673.398865,37.967289 677.273499,44.612289 
	C680.361084,49.907639 683.648132,55.086674 687.382874,61.194191 
	C691.284241,54.930183 695.144226,49.847713 697.779541,44.194355 
	C700.527222,38.299900 704.735352,37.328197 710.640076,38.330688 
	C710.640076,40.544163 710.640076,42.796139 710.640076,45.308922 
	C703.169189,47.172787 702.357849,55.165165 697.942993,60.058926 
	C691.015381,67.738014 691.781372,77.005081 691.990784,86.226135 
	C692.050903,88.873726 692.000000,91.523819 692.000000,94.584984 
	C689.041870,94.584984 686.343689,94.584984 682.999573,94.584984 
	C682.999573,87.488914 683.132263,80.384758 682.913818,73.291397 
	C682.853088,71.318588 682.076477,69.189407 681.068970,67.457344 
	C677.941284,62.080753 674.743958,56.720741 671.173706,51.635033 
	C669.204773,48.830338 666.434692,46.588097 664.015991,43.661194 
z"/>
<path fill="#74b8e2" opacity="1.000000" stroke="none" 
	d="
M282.873840,94.990883 
	C274.206238,96.659096 267.043915,94.149963 261.742889,88.002480 
	C255.867706,81.189178 255.206711,73.055756 259.080597,64.928307 
	C262.787140,57.151966 269.174164,53.001717 277.868195,53.077175 
	C280.924835,53.103706 284.140411,53.566113 286.992157,54.618702 
	C293.281921,56.940296 294.472229,59.453842 293.527954,66.724052 
	C291.301514,66.724052 289.031464,66.724052 286.740814,66.724052 
	C284.212402,60.784790 282.722900,60.011307 275.732727,61.027733 
	C270.781769,61.747639 266.437134,66.376732 266.008545,71.388535 
	C265.380341,78.735504 268.016052,84.445496 272.968231,86.465958 
	C279.176483,88.998901 286.496277,87.273529 291.503113,81.731895 
	C292.761047,83.948128 293.925018,85.998802 295.757751,89.227753 
	C291.369720,91.251999 287.328003,93.116486 282.873840,94.990883 
z"/>
<path fill="#74b8e2" opacity="1.000000" stroke="none" 
	d="
M224.281799,72.421204 
	C224.319611,78.742546 226.127319,84.043915 232.023407,86.393288 
	C238.799744,89.093414 245.012085,87.526794 250.119507,81.788811 
	C251.498428,84.037117 252.672348,85.951172 253.849503,87.870499 
	C249.162247,94.202415 239.594284,97.432831 231.035461,94.832596 
	C223.575058,92.566071 216.781738,86.133560 215.881165,77.306557 
	C214.036148,59.222664 228.882202,49.581005 243.989365,53.968086 
	C251.232101,56.071358 252.629303,58.683582 251.504517,66.716690 
	C249.288818,66.716690 247.028595,66.716690 244.351822,66.716690 
	C244.701752,61.479958 241.434097,60.787895 237.116959,60.942917 
	C231.084900,61.159515 226.493912,64.090424 225.065933,69.185989 
	C224.802734,70.125114 224.656982,71.097145 224.281799,72.421204 
z"/>
<path fill="#74b8e2" opacity="1.000000" stroke="none" 
	d="
M442.007050,57.941620 
	C443.179260,55.947765 444.354340,54.395077 445.529388,52.842384 
	C446.009857,53.046455 446.490356,53.250526 446.970825,53.454601 
	C446.970825,50.186840 446.970825,46.919079 446.970825,43.333031 
	C449.979156,43.333031 452.570679,43.333031 455.785889,43.333031 
	C455.785889,46.576828 455.785889,49.959236 455.785889,53.737789 
	C458.969727,53.896606 461.563202,54.025974 464.574402,54.176178 
	C464.574402,56.255966 464.574402,58.293011 464.574402,60.766762 
	C462.058960,60.894787 459.458618,61.027130 456.183899,61.193794 
	C456.183899,67.920250 455.587585,74.722343 456.397736,81.352577 
	C456.920380,85.629936 460.704407,87.790405 465.677155,87.018814 
	C465.677155,89.667992 465.677155,92.064445 465.677155,94.440811 
	C453.292786,96.285622 447.268066,89.558067 447.025940,79.302910 
	C446.888794,73.494888 447.001160,67.680977 447.001160,62.814819 
	C444.930237,60.975929 443.470062,59.679352 442.007050,57.941620 
z"/>
<path fill="#74b8e2" opacity="1.000000" stroke="none" 
	d="
M571.000000,53.053028 
	C571.000244,63.205051 570.973267,72.866226 571.023193,82.527008 
	C571.033386,84.499634 570.295837,86.600037 573.648865,87.442055 
	C574.734253,87.714615 574.846252,91.863121 575.579346,94.988197 
	C572.500183,94.988197 570.385254,95.109428 568.289062,94.962616 
	C564.100525,94.669258 561.852966,92.833939 561.925354,88.118111 
	C562.137329,74.318733 562.000732,60.513992 562.000732,46.402122 
	C560.308594,46.136311 558.912659,45.917034 557.273315,45.659515 
	C557.273315,43.266087 557.273315,40.998455 557.273315,38.021099 
	C560.212036,38.021099 563.162048,37.813271 566.070923,38.070511 
	C570.283142,38.443016 570.373230,42.150002 570.898010,45.082146 
	C571.331421,47.503952 570.995117,50.063526 571.000000,53.053028 
z"/>
<path fill="#74b8e2" opacity="1.000000" stroke="none" 
	d="
M55.277218,31.577351 
	C56.944954,36.402180 58.433765,40.857918 59.944157,45.378242 
	C54.943501,45.378242 50.163769,45.378242 45.163635,45.378242 
	C47.530037,37.863628 49.892269,30.362268 52.254498,22.860910 
	C52.641361,22.969515 53.028225,23.078119 53.415092,23.186722 
	C53.976158,25.860567 54.537224,28.534410 55.277218,31.577351 
z"/>
</svg>
