<svg xmlns="http://www.w3.org/2000/svg" width="149" height="40" viewBox="0 0 149 40" fill="none"><path d="M35.8381 34.2223V37.7717H34.7789V36.8761C34.517 37.466 33.818 37.859 32.9892 37.859C31.8629 37.859 31.1203 37.1818 31.1203 36.199C31.1203 35.1398 31.9604 34.4846 33.2606 34.4846H34.4075C34.6584 34.4846 34.7785 34.3535 34.7785 34.1559C34.7785 33.4897 34.2983 33.0309 33.4465 33.0309C32.6821 33.0309 32.1251 33.5116 32.0922 34.0686H31.1094C31.1967 32.9875 32.1795 32.1792 33.479 32.1792C34.8987 32.1803 35.8381 32.9992 35.8381 34.2223ZM34.7789 35.3582V35.2271H33.3589C32.6383 35.2271 32.1686 35.5985 32.1686 36.1767C32.1686 36.6793 32.5838 37.0168 33.1952 37.0168C34.2 37.0168 34.7785 36.3739 34.7785 35.3582H34.7789Z" fill="#DFE3DE"></path><path d="M64.7422 35.0195C64.7422 33.5016 65.736 32.1802 67.4723 32.1802C68.7609 32.1802 69.8749 32.9446 70.029 34.189H68.9698C68.8716 33.5681 68.2393 33.1079 67.4953 33.1079C66.3927 33.1079 65.8467 33.9596 65.8467 35.0188C65.8467 36.078 66.4033 36.9301 67.4953 36.9301C68.2492 36.9301 68.8058 36.5367 68.9808 35.9144H70.029C69.8544 37.0718 68.8716 37.8581 67.4723 37.8581C65.736 37.8589 64.7422 36.5374 64.7422 35.0195Z" fill="#DFE3DE"></path><path d="M70.2939 35.0195C70.2939 33.3705 71.4843 32.1802 73.1333 32.1802C74.7823 32.1802 75.9602 33.3705 75.9602 35.0195C75.9602 36.6686 74.7809 37.8589 73.1318 37.8589C71.4828 37.8589 70.2939 36.6686 70.2939 35.0195ZM74.8806 35.0195C74.8806 33.8946 74.1706 33.1086 73.1333 33.1086C72.0847 33.1086 71.375 33.8946 71.375 35.0195C71.375 36.1445 72.0847 36.9308 73.1333 36.9308C74.1706 36.9308 74.8806 36.1445 74.8806 35.0195Z" fill="#DFE3DE"></path><path d="M76.5996 37.7716V32.2686H77.6588V33.2503C77.8882 32.6294 78.4777 32.1802 79.2859 32.1802C80.1815 32.1802 80.8477 32.5841 81.0661 33.3051C81.2852 32.6842 82.0051 32.1802 82.8557 32.1802C84.0461 32.1802 84.7889 32.9994 84.7889 34.277V37.7716H83.7298V34.5717C83.7298 33.6981 83.2915 33.1086 82.561 33.1086C81.721 33.1086 81.2177 33.6981 81.2177 34.5717V37.7716H80.1585V34.5717C80.1585 33.6981 79.7202 33.1086 79.001 33.1086C78.161 33.1086 77.6577 33.6981 77.6577 34.5717V37.7716H76.5996Z" fill="#DFE3DE"></path><path d="M85.7705 39.9992V32.2686H86.8297V33.0867C87.1584 32.5388 87.8235 32.1802 88.5879 32.1802C90.2476 32.1802 91.1979 33.3814 91.1979 35.0195C91.1979 36.6576 90.2041 37.8589 88.5317 37.8589C87.8012 37.8589 87.1438 37.5203 86.8282 36.9962V39.9992H85.7705ZM90.1274 35.0195C90.1274 33.873 89.4506 33.1086 88.4349 33.1086C87.4082 33.1086 86.7424 33.873 86.7424 35.0195C86.7424 36.166 87.4082 36.9308 88.4349 36.9308C89.4506 36.9308 90.1274 36.1664 90.1274 35.0195Z" fill="#DFE3DE"></path><path d="M96.326 34.2223V37.7717H95.2668V36.8761C95.0046 37.466 94.3059 37.859 93.4772 37.859C92.3526 37.859 91.6101 37.1818 91.6101 36.199C91.6101 35.1398 92.4501 34.4846 93.7504 34.4846H94.8968C95.1481 34.4846 95.2683 34.3535 95.2683 34.1559C95.2683 33.4897 94.7876 33.0309 93.9359 33.0309C93.1715 33.0309 92.6145 33.5116 92.582 34.0686H91.5991C91.6864 32.9875 92.6693 32.1792 93.9688 32.1792C95.387 32.1803 96.326 32.9992 96.326 34.2223ZM95.2668 35.3582V35.2271H93.8471C93.1265 35.2271 92.6568 35.5985 92.6568 36.1767C92.6568 36.6793 93.0718 37.0168 93.6835 37.0168C94.6879 37.0168 95.2668 36.3739 95.2668 35.3582Z" fill="#DFE3DE"></path><path d="M97.2051 37.7716V32.2686H98.2643V33.2394C98.5594 32.5516 99.2139 32.1802 100.033 32.1802C101.279 32.1802 102.086 33.0757 102.086 34.3862V37.7716H101.027V34.594C101.027 33.7204 100.516 33.1305 99.7387 33.1305C98.876 33.1305 98.2643 33.8296 98.2643 34.7905V37.7719L97.2051 37.7716Z" fill="#DFE3DE"></path><path d="M107.29 32.2686L105.357 37.5762L104.527 40.0002H103.511L104.254 37.8271L102.212 32.2686H103.304L104.746 36.3957L106.198 32.2686H107.29Z" fill="#DFE3DE"></path><path d="M63.1727 33.7031H62.1865C61.5532 33.7031 61.2136 34.1779 61.2136 34.9701V37.8325H59.3487V33.7031H58.5568C57.9231 33.7031 57.5838 34.1779 57.5838 34.9701V37.8325H55.7167V32.1757H57.5838V33.0355C57.8892 32.3682 58.3077 32.1757 58.9301 32.1757H61.2154V33.0355C61.5211 32.3682 61.9396 32.1757 62.5616 32.1757H63.1727V33.7031ZM55.3095 35.446H51.4165C51.5184 36.0797 51.9143 36.4417 52.5819 36.4417C53.0797 36.4417 53.4304 36.2382 53.5436 35.8759L55.1956 36.3398C54.788 37.3259 53.781 37.9238 52.5819 37.9238C50.5567 37.9238 49.629 36.3511 49.629 35.0048C49.629 33.6812 50.4435 32.0972 52.4687 32.0972C54.6185 32.0972 55.3311 33.7042 55.3311 34.8916C55.3322 35.1513 55.3208 35.3208 55.3095 35.446ZM53.4994 34.3503C53.4541 33.8638 53.1035 33.4113 52.4698 33.4113C51.8814 33.4113 51.5308 33.6717 51.4176 34.3503H53.4994ZM46.3718 37.8325H48.0121L50.06 32.1757H48.1819L47.1863 35.4679L46.168 32.1757H44.3013L46.3718 37.8325ZM38.7234 37.8325H40.5788V33.7031H42.344V37.8325H44.1881V32.1757H40.5788V31.8251C40.5788 31.4401 40.8505 31.2042 41.2804 31.2042H42.344V29.6753H40.9751C39.6284 29.6753 38.7234 30.5011 38.7234 31.7119V32.1757H37.6711V33.7031H38.7234V37.8325Z" fill="#DFE3DE"></path><path d="M108.672 37.0631V37.0762C108.672 37.2603 108.599 37.4368 108.469 37.5669C108.339 37.6971 108.162 37.7702 107.978 37.7702C107.794 37.7702 107.618 37.6971 107.488 37.5669C107.358 37.4368 107.284 37.2603 107.284 37.0762V37.0631C107.284 36.879 107.358 36.7025 107.488 36.5724C107.618 36.4423 107.794 36.3691 107.978 36.3691C108.162 36.3691 108.339 36.4423 108.469 36.5724C108.599 36.7025 108.672 36.879 108.672 37.0631Z" fill="#DFE3DE"></path><g clip-path="url(#clip0_2256_10146)"><path d="M35.4861 7.50596C37.7856 7.50596 39.6492 8.81168 39.9121 10.6103L39.9821 11.0872H43.8722L43.7843 10.4523C43.2624 6.68514 39.8601 4.05371 35.5121 4.05371C33.0246 4.05371 30.7451 4.90953 29.0915 6.46519C27.2449 8.20281 26.2681 10.7053 26.2681 13.7026C26.2681 20.3692 30.9111 23.3525 35.5121 23.3525C39.9401 23.3525 43.3224 20.7151 43.7353 16.9379L43.8033 16.3201H40.0271L39.9621 16.8039C39.7212 18.6036 37.8396 19.9033 35.4861 19.9033C33.9014 19.9033 32.5677 19.3664 31.6289 18.3516C30.6291 17.2708 30.1002 15.6642 30.1002 13.7046C30.1002 11.745 30.6291 10.1394 31.6289 9.05763C32.5677 8.04185 33.9014 7.50596 35.4861 7.50596Z" fill="#DFE3DE"></path><path d="M48.7423 3.87695H45.1641V23.1508H48.7423V3.87695Z" fill="#DFE3DE"></path><path d="M61.6243 11.0274C60.4246 9.72168 58.718 9.02783 56.6934 9.02783C54.6688 9.02783 52.9382 9.75667 51.7145 11.1354C50.5857 12.4071 49.9639 14.1747 49.9639 16.1123C49.9639 18.0499 50.6287 19.8285 51.8355 21.1592C53.1162 22.5709 54.9348 23.3487 56.9474 23.3487C59.8207 23.3487 62.1052 21.989 63.04 19.7645L59.6728 18.8067C59.1369 19.8825 57.9291 20.1264 56.9474 20.1264C55.2147 20.1264 53.94 18.9877 53.5751 17.1771H63.211L63.267 16.6772C63.294 16.4352 63.321 16.0043 63.321 15.6504C63.321 13.8618 62.7181 12.2171 61.6243 11.0274ZM53.7191 14.2637C54.167 12.845 55.1647 12.1272 56.6934 12.1272C58.2371 12.1272 59.2928 12.914 59.6248 14.2637H53.7191Z" fill="#DFE3DE"></path><path d="M70.2556 9.03271C67.8391 9.03271 65.8196 10.1485 64.8298 11.8701L67.7461 13.4168C68.1101 12.6609 69.0649 12.127 70.1796 12.127C71.7703 12.127 72.7201 12.8969 72.7201 14.1856C72.7201 14.2996 72.7201 14.3906 72.4141 14.3906H69.7477C66.3854 14.3906 64.2119 16.1742 64.2119 18.9346C64.2119 21.534 66.2275 23.3526 69.1109 23.3526C70.5255 23.3526 71.8103 22.9017 72.7181 22.1339V23.1497H76.2973V14.3386C76.2993 11.1653 73.8698 9.03271 70.2556 9.03271ZM69.5947 20.2833C68.484 20.2833 67.7651 19.7344 67.7651 18.8836C67.7651 17.6648 68.9079 17.2309 69.9767 17.2309H72.7151C72.6261 19.1755 71.5003 20.2833 69.5947 20.2833Z" fill="#DFE3DE"></path><path d="M81.6071 10.2446V9.23584H78.0278V23.1508H81.6071V16.8022C81.6071 12.4841 83.5196 12.4841 84.1485 12.4841H86.56V9.23584H84.4524C83.2387 9.23584 82.3069 9.56177 81.6071 10.2446Z" fill="#DFE3DE"></path><path d="M99.4513 4.25781L94.5614 17.7759L89.6944 4.25781H85.8333L92.8777 23.1507H96.268L103.312 4.25781H99.4513Z" fill="#DFE3DE"></path><path d="M107.894 9.03271C103.745 9.03271 100.734 12.0441 100.734 16.1932C100.734 20.3423 103.745 23.3536 107.894 23.3536C112.028 23.3536 115.03 20.3423 115.03 16.1932C115.03 12.0441 112.028 9.03271 107.894 9.03271ZM107.894 20.0803C105.782 20.0803 104.363 18.5177 104.363 16.1932C104.363 13.8687 105.782 12.306 107.894 12.306C109.994 12.306 111.401 13.8677 111.401 16.1932C111.401 18.5187 109.991 20.0803 107.894 20.0803Z" fill="#DFE3DE"></path><path d="M119.327 4.28199C119.137 4.06472 118.897 3.8975 118.627 3.7951C118.355 3.68856 118.064 3.63855 117.772 3.64813C117.225 3.64813 116.773 3.83109 116.292 4.24L116.244 4.28599C115.866 4.70283 115.652 5.24304 115.644 5.80566C115.646 6.36472 115.863 6.90155 116.25 7.30534L116.28 7.33533C116.688 7.72719 117.233 7.94483 117.799 7.94221C118.365 7.9396 118.908 7.71695 119.313 7.32133L119.329 7.30534C119.741 6.85843 119.959 6.34155 119.959 5.80566C119.955 5.53128 119.9 5.26001 119.797 5.00583C119.701 4.73001 119.54 4.48159 119.327 4.28199Z" fill="#DFE3DE"></path><path d="M119.575 9.23584H115.997V23.1508H119.575V9.23584Z" fill="#DFE3DE"></path><path d="M130.496 18.1257C130.154 19.3505 129.063 20.0813 127.579 20.0813C125.163 20.0813 124.302 18.0727 124.302 16.1941C124.302 14.3155 125.163 12.307 127.579 12.307C129.036 12.307 130.279 13.1858 130.457 14.3505L130.531 14.8214H134.096L134.019 14.1956C133.646 11.1562 130.974 9.03369 127.52 9.03369C125.449 9.03369 123.683 9.78153 122.421 11.1972C121.259 12.4969 120.622 14.2706 120.622 16.1961C120.622 18.1217 121.262 19.8953 122.421 21.1951C123.688 22.6108 125.454 23.3586 127.52 23.3586C131.007 23.3586 133.557 21.398 134.019 18.3597L134.119 17.7188H130.609L130.496 18.1257Z" fill="#DFE3DE"></path><path d="M146.612 11.0274C145.412 9.72168 143.706 9.02783 141.681 9.02783C139.657 9.02783 137.926 9.75667 136.702 11.1354C135.574 12.4071 134.953 14.1747 134.953 16.1123C134.953 18.0499 135.618 19.8285 136.824 21.1592C138.104 22.5709 139.924 23.3487 141.935 23.3487C144.808 23.3487 147.094 21.989 148.028 19.7645L144.662 18.8077C144.124 19.8825 142.918 20.1264 141.935 20.1264C140.202 20.1264 138.928 18.9877 138.563 17.1771H148.2L148.255 16.6772C148.282 16.4352 148.309 16.0043 148.309 15.6504C148.309 13.8618 147.707 12.2171 146.612 11.0274ZM138.707 14.2637C139.155 12.845 140.153 12.1272 141.681 12.1272C143.226 12.1272 144.286 12.914 144.613 14.2637H138.707Z" fill="#DFE3DE"></path></g><path d="M19.2894 18.4752C19.0909 18.361 18.8482 18.361 18.6498 18.4752L18.1429 18.7607C18.1044 18.7836 18.0801 18.825 18.0801 18.8693V21.2749C18.0801 21.3848 17.9916 21.4733 17.8831 21.4748C17.846 21.4748 17.8089 21.4648 17.7774 21.4448L15.763 20.2113C15.723 20.1884 15.6759 20.1884 15.6359 20.2113L12.3694 22.1015C12.171 22.2157 11.9283 22.2157 11.7298 22.1015L4.94834 18.1868C4.77273 18.0855 4.66423 17.8984 4.6628 17.6957V9.86489C4.6628 9.63646 4.78415 9.42517 4.9826 9.31095L11.7312 5.41768C11.9297 5.30346 12.1724 5.30346 12.3708 5.41768L18.6526 9.04398C18.8511 9.15819 19.0938 9.15819 19.2922 9.04398L22.5359 7.17087C22.8871 6.96814 23.0085 6.51842 22.8043 6.16578C22.74 6.05442 22.6473 5.96162 22.5359 5.89738L12.5493 0.133845C12.2395 -0.0446149 11.8597 -0.0446149 11.5499 0.133845L0.498268 6.51413C0.18989 6.69259 8.70967e-06 7.02239 8.70967e-06 7.37931V20.1827C-0.00141897 20.5125 0.172758 20.8195 0.458293 20.9865L2.10726 21.9388C2.17008 21.9759 2.20863 22.043 2.20863 22.1158V26.1233C2.21434 26.2803 2.34711 26.4045 2.50415 26.3988C2.55127 26.3974 2.59695 26.3845 2.63693 26.3603L5.98769 24.2987C6.05193 24.2616 6.13188 24.2616 6.19613 24.2987L11.5513 27.3896C11.8612 27.5681 12.2409 27.5681 12.5507 27.3896L22.5345 21.6261C22.8857 21.4234 23.007 20.9736 22.8029 20.621C22.7386 20.5097 22.6458 20.4169 22.5345 20.3526L19.2894 18.4752Z" fill="#DFE3DE"></path><path fill-rule="evenodd" clip-rule="evenodd" d="M8.60791 16.1951C8.62076 15.734 9.00338 15.3714 9.46452 15.3828H14.6042C15.0653 15.3714 15.4479 15.734 15.4608 16.1951C15.4479 16.6563 15.0653 17.0189 14.6042 17.0075H9.46452C9.00338 17.0189 8.62076 16.6563 8.60791 16.1951ZM9.47451 12.9472H12.0743C12.5383 12.9329 12.9252 13.2955 12.9409 13.7595C12.9252 14.2235 12.5383 14.5862 12.0743 14.5719H9.47451C9.01052 14.5862 8.62361 14.2235 8.60791 13.7595C8.62361 13.2955 9.01052 12.9329 9.47451 12.9472ZM9.46452 10.5116H14.6042C15.0653 10.5001 15.4479 10.8628 15.4608 11.3239C15.4479 11.785 15.0653 12.1477 14.6042 12.1363H9.46452C9.00338 12.1477 8.62076 11.785 8.60791 11.3239C8.62076 10.8628 9.00338 10.4987 9.46452 10.5116Z" fill="#DFE3DE"></path><defs><clipPath id="clip0_2256_10146"><rect width="122.04" height="19.7057" fill="white" transform="translate(26.2681 3.64795)"></rect></clipPath></defs></svg>
