<svg width="185" height="24" viewBox="0 0 185 24" fill="none" xmlns="http://www.w3.org/2000/svg">
<path fill-rule="evenodd" clip-rule="evenodd" d="M178.623 20.9904C177.357 21.0044 176.104 20.7326 174.953 20.1945C173.774 19.6009 172.768 18.7019 172.036 17.5873L171.941 17.4501L173.998 15.0761L174.146 15.2819C174.71 16.1146 175.4 16.8509 176.19 17.4638C176.983 18.0029 177.926 18.2675 178.878 18.2185C179.395 18.2213 179.908 18.1379 180.397 17.9715C180.834 17.8272 181.231 17.5778 181.554 17.2442C181.694 17.1028 181.804 16.9337 181.878 16.7473C181.952 16.561 181.988 16.3612 181.984 16.1602C181.992 15.8125 181.91 15.4687 181.744 15.1647C181.579 14.8606 181.337 14.6074 181.043 14.4311C180.173 13.9041 179.208 13.559 178.206 13.4157C176.789 13.1687 175.451 12.5755 174.307 11.6866C173.807 11.2284 173.415 10.6611 173.159 10.0268C172.903 9.39256 172.79 8.70763 172.829 8.02278C172.81 7.06133 173.114 6.12226 173.689 5.36063C174.281 4.60458 175.048 4.01045 175.921 3.63159C176.871 3.23047 177.89 3.02527 178.919 3.02781C180.158 2.99587 181.385 3.27382 182.495 3.83742C183.483 4.353 184.305 5.14873 184.861 6.12908L184.941 6.28001L182.79 8.39327L182.656 8.17371C182.255 7.4877 181.714 6.89795 181.07 6.44467C180.404 6.01128 179.628 5.78702 178.838 5.79972C178.079 5.77128 177.33 5.97694 176.687 6.38981C176.429 6.56199 176.217 6.79704 176.071 7.07375C175.924 7.35047 175.847 7.66014 175.847 7.97475C175.847 8.28936 175.924 8.59898 176.071 8.8757C176.217 9.15242 176.429 9.38751 176.687 9.55968C177.467 9.98406 178.306 10.2848 179.174 10.4516C180.129 10.6478 181.058 10.9563 181.943 11.3711C182.775 11.7513 183.517 12.3079 184.121 13.004C184.697 13.6914 185.008 14.5696 184.995 15.474C185.028 16.2338 184.89 16.9912 184.592 17.6882C184.294 18.3851 183.843 19.0031 183.274 19.4947C181.951 20.5482 180.299 21.0792 178.623 20.9904ZM161.523 20.7846C160.338 20.7893 159.164 20.5562 158.068 20.0985C157.015 19.6595 156.057 19.0164 155.244 18.2048C154.438 17.3952 153.798 16.4295 153.362 15.3642C152.914 14.2498 152.685 13.056 152.69 11.8513C152.673 10.6542 152.902 9.46681 153.362 8.36584C154.05 6.76771 155.179 5.40894 156.612 4.45595C158.045 3.50297 159.718 2.99714 161.428 3.00038C162.341 2.99164 163.25 3.13533 164.117 3.42577C164.899 3.67389 165.638 4.0442 166.309 4.52354C166.88 4.91734 167.384 5.4041 167.801 5.96442L167.908 6.10161L165.999 8.17371L165.865 8.03648C165.254 7.44219 164.561 6.94286 163.808 6.55447C163.096 6.18508 162.308 5.99232 161.509 5.99185C160.447 5.96488 159.398 6.23032 158.471 6.7603C157.613 7.25699 156.898 7.97659 156.4 8.84609C155.885 9.76385 155.625 10.8076 155.648 11.865C155.637 12.9282 155.916 13.9734 156.454 14.884C156.981 15.7848 157.726 16.5316 158.619 17.0521C159.486 17.5745 160.475 17.8494 161.482 17.848C162.245 17.864 163.002 17.7095 163.7 17.3952C164.332 17.1163 164.889 16.6883 165.327 16.1464C165.716 15.6672 165.934 15.0672 165.946 14.4449H161.213V11.4396H168.97L169.078 12.3453C169.091 12.5967 169.091 12.8487 169.078 13.1C169.081 14.0305 168.945 14.956 168.675 15.8445C168.43 16.7049 167.998 17.4977 167.411 18.1636C166.731 19.0177 165.866 19.6988 164.883 20.1534C163.82 20.6064 162.674 20.8216 161.523 20.7846ZM146.735 20.5239L137.431 8.50303L137.633 10.6437C137.727 11.7278 137.768 12.6335 137.768 13.498V20.5239H134.797V3.74136H137.391L146.681 15.9955C146.573 15.0212 146.506 14.0195 146.479 13.0177C146.479 11.6455 146.479 10.4653 146.479 9.32638V3.74136H149.45V20.5513L146.735 20.5239ZM127.241 20.5239V20.318L125.682 16.4346H118.704L117.078 20.5513H113.972L120.842 3.75509H123.826L130.642 20.565L127.241 20.5239ZM124.552 13.5941L123.302 10.5065C123.074 9.90275 122.859 9.31266 122.657 8.72259L122.2 7.35035L121.716 8.72259C121.487 9.38127 121.272 9.98507 121.057 10.534L119.861 13.5392L124.552 13.5941ZM107.707 20.5239V13.5666H99.9908V20.5239H97.06V3.74136H99.9908V10.7535H107.761V3.74136H110.692V20.5513L107.707 20.5239ZM84.7591 20.5239V6.59564H80V3.74136H92.6908V6.59564H87.7839V20.5513L84.7591 20.5239Z" fill="#DFE3DE"/>
<mask id="mask0_28_88" style="mask-type:luminance" maskUnits="userSpaceOnUse" x="0" y="0" width="47" height="24">
<path d="M0 0H46.39V23.065H0V0Z" fill="#7B7B82"/>
</mask>
<g mask="url(#mask0_28_88)">
<path fill-rule="evenodd" clip-rule="evenodd" d="M34.793 17.275C31.603 17.275 29.018 14.705 29.018 11.532C29.018 8.36203 31.604 5.79103 34.793 5.79103C37.982 5.79103 40.567 8.36103 40.567 11.532C40.567 14.704 37.982 17.275 34.793 17.275ZM11.598 17.275C8.40801 17.275 5.82301 14.705 5.82301 11.532C5.82301 8.36203 8.40801 5.79103 11.598 5.79103C14.787 5.79103 17.372 8.36103 17.372 11.532C17.372 14.704 14.787 17.275 11.598 17.275ZM46.358 10.913C46.357 10.881 46.356 10.848 46.353 10.816C46.33 10.438 46.289 10.067 46.23 9.70003C46.226 9.68203 46.225 9.66203 46.221 9.64303C46.158 9.26103 46.076 8.88403 45.975 8.51503V8.51303C45.3023 6.06412 43.8433 3.9042 41.8226 2.3658C39.8019 0.827398 37.3316 -0.00419805 34.792 -0.000967184H11.597C5.78001 -0.000967184 0.975007 4.26703 0.142007 9.82303L0.139007 9.84703C0.0860071 10.202 0.0510071 10.561 0.0320071 10.925C0.0310071 10.945 0.0270071 10.963 0.0260071 10.983V11.033C0.0190071 11.199 0.00100708 11.363 0.00100708 11.533C0.00100708 11.742 0.0210071 11.946 0.0330071 12.153L0.0370071 12.249C0.0610071 12.626 0.102007 12.999 0.161007 13.366L0.170007 13.421C1.07801 18.89 5.84201 23.065 11.599 23.065H46.39V11.533C46.39 11.323 46.369 11.119 46.358 10.913Z" fill="#7B7B82"/>
</g>
<mask id="mask1_28_88" style="mask-type:luminance" maskUnits="userSpaceOnUse" x="49" y="0" width="24" height="24">
<path d="M49.394 0H72.459V23.065H49.394V0Z" fill="#60ABFF"/>
</mask>
<g mask="url(#mask1_28_88)">
<path fill-rule="evenodd" clip-rule="evenodd" d="M60.927 17.275C59.404 17.275 57.9433 16.67 56.8664 15.5931C55.7895 14.5162 55.1845 13.0555 55.1845 11.5325C55.1845 10.0095 55.7895 8.54889 56.8664 7.47196C57.9433 6.39504 59.404 5.79002 60.927 5.79002C62.45 5.79002 63.9106 6.39504 64.9875 7.47196C66.0645 8.54889 66.6695 10.0095 66.6695 11.5325C66.6695 13.0555 66.0645 14.5162 64.9875 15.5931C63.9106 16.67 62.45 17.275 60.927 17.275ZM60.927 2.34246e-05C54.557 -0.000976575 49.394 5.16302 49.394 11.532V23.065H60.927C67.296 23.065 72.459 17.902 72.459 11.533C72.46 5.16202 67.296 2.34246e-05 60.927 2.34246e-05Z" fill="#60ABFF"/>
</g>
</svg>
